# xmcd CD database file
#
# Track frame offsets:
#	150
#	13370
#	27930
#	47992
#	62212
#	77170
#	90190
#	104720
#	117775
#	131545
#	146445
#	160840
#	176617
#	191162
#	206840
#	220845
#	234005
#	245582
#
# Disc length: 3463 seconds
#
# Revision: 0
# Processed by: cddbd v1.4PL0 Copyright (c) Steve Scherf et al.
# Submitted via: CDex 1.50Beta7
#
DISCID=fe0d8512
DTITLE=The Swing Bands [CD 2) - Tommy Dorsey and his Orchestra with Frank Sinatra
DYEAR=1900
DGENRE=Jazz
TTITLE0=Opus One
TTITLE1=On the Sunny Side of the Street
TTITLE2=I'm Getting Sentimental Over You
TTITLE3=Boogie Woogie
TTITLE4=Blue Skies
TTITLE5=Royal Garden Blues
TTITLE6=Stardust
TTITLE7=Chicago
TTITLE8=Well Git It
TTITLE9=Marie
TTITLE10=Imagination
TTITLE11=Stompin' at the Savoy
TTITLE12=Topsy
TTITLE13=Sugar Foot Stomp
TTITLE14=The Kingdom of Swing
TTITLE15=Bach Goest to Town
TTITLE16=Sent for You Yesterday and Here You Come Today
TTITLE17=Sing Me A Swing Song (And Let Me Dance)
EXTD=
EXTT0=
EXTT1=
EXTT2=
EXTT3=
EXTT4=
EXTT5=
EXTT6=
EXTT7=
EXTT8=
EXTT9=
EXTT10=
EXTT11=
EXTT12=
EXTT13=
EXTT14=
EXTT15=
EXTT16=
EXTT17=
PLAYORDER=
